<?xml version="1.0" encoding="iso-8859-1"?>
<!-- Generator: Adobe Illustrator 19.0.0, SVG Export Plug-In . SVG Version: 6.00 Build 0)  -->
<svg version="1.1" id="Layer_1" xmlns="http://www.w3.org/2000/svg" xmlns:xlink="http://www.w3.org/1999/xlink" x="0px" y="0px"
	 viewBox="0 0 515.385 515.385" style="enable-background:new 0 0 515.385 515.385;" xml:space="preserve">
<g>
	<g>
		<path d="M145.021,0.911c-27.338,0-49.469,22.13-49.469,49.469v46.084H49.469C22.13,96.464,0,118.595,0,145.932
			C0,173.27,22.13,195.4,49.469,195.4h92.168c27.338,0,52.853-25.646,52.853-52.853V50.38
			C194.49,23.042,172.359,0.911,145.021,0.911z M162.074,144.24c0,8.591-10.284,18.747-18.746,18.747H51.16
			c-8.592,0-15.361-6.769-15.361-15.361c0.001-8.593,6.769-15.362,15.361-15.362h63.137c10.284,0,17.054-6.769,17.054-17.053V52.072
			c0-8.591,6.769-15.361,15.361-15.361c8.591,0,15.361,6.769,15.361,15.361V144.24z"/>
	</g>
</g>
<g>
	<g>
		<path d="M462.401,98.155h-30.723V52.071c0-27.338-22.13-49.469-49.469-49.469c-11.977,0-25.646,5.077-34.107,13.669
			c-8.592,8.591-13.669,20.439-13.669,34.107v92.168c-0.001,44.262,20.438,52.854,37.491,52.854h92.168
			c27.338,0,47.777-20.439,47.777-47.777C511.87,120.285,489.739,98.155,462.401,98.155z M465.787,162.983h-92.168
			c-1.692,0-3.385-3.385-3.385-18.747V52.071h-0.001c0-3.385,1.692-6.769,5.077-10.285c1.692-3.385,6.769-5.077,10.284-5.077
			c8.592,0,13.669,6.769,15.361,15.361v63.137c0,10.285,6.769,17.053,17.054,17.053h47.777c8.592,0,15.361,6.769,15.361,15.361
			C481.148,156.213,474.379,162.983,465.787,162.983z"/>
	</g>
</g>
<g>
	<g>
		<path d="M143.329,319.983H51.161c-27.338,0-49.469,22.13-49.469,49.469c0,27.338,22.13,49.469,49.469,49.469h46.084v46.084
			c0,27.338,22.131,49.469,49.469,49.469c25.646,0,47.777-22.131,49.469-49.469v-92.168
			C196.181,345.628,170.536,319.983,143.329,319.983z M162.075,466.695L162.075,466.695c-0.001,8.591-6.77,15.361-15.362,15.361
			c-8.592,0-15.361-6.769-15.361-15.361v-63.137c0-10.285-6.769-17.053-17.054-17.053H51.161c-8.592,0-15.361-6.769-15.361-15.361
			c0-8.591,6.769-15.361,15.361-15.361h92.168c8.592,0,18.746,10.285,18.746,18.747V466.695z"/>
	</g>
</g>
<g>
	<g>
		<path d="M465.916,319.983h-92.168c-17.054,0-37.492,8.591-37.492,52.853v92.168c0,27.338,22.131,49.469,49.469,49.469
			c27.338,0,47.777-22.131,49.469-49.469v-46.084h30.723c27.338,0,49.469-22.131,49.469-49.469
			C515.385,342.114,493.123,319.983,465.916,319.983z M465.916,386.505h-47.777c-10.284,0-17.054,6.769-17.054,17.053v63.137
			c0,8.591-6.769,15.361-15.361,15.361c-8.591,0-15.361-6.769-15.361-15.361v-92.167c0-15.361,1.692-18.747,1.692-18.747h93.861
			c8.592,0,15.361,6.769,15.361,15.361C481.277,379.735,474.378,386.505,465.916,386.505z"/>
	</g>
</g>
<g>
</g>
<g>
</g>
<g>
</g>
<g>
</g>
<g>
</g>
<g>
</g>
<g>
</g>
<g>
</g>
<g>
</g>
<g>
</g>
<g>
</g>
<g>
</g>
<g>
</g>
<g>
</g>
<g>
</g>
</svg>
