<svg xmlns="http://www.w3.org/2000/svg" xmlns:xlink="http://www.w3.org/1999/xlink" width="585.428" height="585.428" viewBox="0 0 585.428 585.428">
  <defs>
    <clipPath id="clip-path">
      <rect id="Rectangle_2" data-name="Rectangle 2" width="478" height="478" transform="translate(-0.185 0.039)" fill="#fff" stroke="#707070" stroke-linecap="round" stroke-width="1"/>
    </clipPath>
  </defs>
  <g id="Group_2" data-name="Group 2" transform="matrix(0.966, -0.259, 0.259, 0.966, 0.169, 123.63)" clip-path="url(#clip-path)">
    <g id="Group_1" data-name="Group 1" transform="translate(15.185 92.559)">
      <path id="Path_1" data-name="Path 1" d="M21.283,164.23c.2-2.586.27-5.174.35-7.916l.018-.6c.7-24,17.416-43.655,38.5-45.833a66.63,66.63,0,0,1,54.442-15.508l209.841,33.6,2.861.458,30.579,4.9V138.4c0,32.856-12.884,56.522-38.294,70.339-20.166,10.966-48.062,16.073-87.791,16.073H198.444a11.811,11.811,0,0,0-10.725,16.759l26.464,57.364a86.784,86.784,0,0,1,36.063,18.717c14.32,12.252,25.31,29.274,31.264,48.3h28.7v46.788c0,28.514-19.884,52.21-44.938,54.4l-.179.259H124.244l-1.777-2.53c-13.009-18.517-19.885-40.8-19.885-64.437a117.957,117.957,0,0,1,.983-15.187H38.123V275.668a30.848,30.848,0,0,1-12.878-8.223,36.8,36.8,0,0,1-9.919-23.913l-.016-.351Zm324.573-20.771-18.566-2.973V159.83h16.345A86.343,86.343,0,0,0,345.856,143.459Zm-47.546,234.4H282.467a22.53,22.53,0,0,0,15.844,16.525ZM130.489,455.5h128.44l.04-.056,2.977-.043c20.052-.287,36.366-19.422,36.366-42.656v-7.027a33.564,33.564,0,0,1-27.5-32.965v-.975c-5.11-17.828-15.108-33.787-28.3-45.079a77.007,77.007,0,0,0-21.581-13.14,70.79,70.79,0,0,0-54.06.625l-8.275,3.509V282.042a43.633,43.633,0,0,0-37.617,43.164v38.941l-.357.985q-1.471,4.05-2.586,8.214a101.847,101.847,0,0,0-2.439,11.9,105.617,105.617,0,0,0-1.11,15.187A99.848,99.848,0,0,0,130.489,455.5ZM50.026,373.345h55.746a112.873,112.873,0,0,1,3.3-11.279V325.2a55.534,55.534,0,0,1,55.47-55.471H170.5v30.478a82.284,82.284,0,0,1,24.154-3.611c1.822,0,3.633.079,5.436.2l-23.175-50.235a23.712,23.712,0,0,1,21.533-33.647h33.341c60.267,0,94.511-12.639,107.753-41.18H315.389V138.579L112.707,106.126a55.04,55.04,0,0,0-35.174,6.039c15.364,5.772,27.27,21.068,29.428,39.921l.086.756c.307,2.686.6,5.222,1,7.748l12.635,78.732.069.69c.815,19.187-12.513,35.392-29.711,36.123l-41.016.826v96.383ZM33.861,259.233a20.2,20.2,0,0,0,4.263,3.414,16.734,16.734,0,0,0,9.366,2.463l2.536-.052,40.573-.817c10.518-.487,18.656-10.932,18.277-23.392L96.3,162.476c-.448-2.791-.768-5.582-1.076-8.282l-.086-.753c-2.026-17.7-15.031-31.248-30.076-31.834-.705-.027-1.413-.037-2.127-.006a27.882,27.882,0,0,0-17.839,7.754,38,38,0,0,0-11.547,26.7l-.017.6c-.079,2.757-.162,5.608-.379,8.471l-5.918,78.232A24.876,24.876,0,0,0,33.861,259.233Z" transform="translate(-15.31 -93.523)" fill="#db3301" stroke="#ad15c4" stroke-linecap="round" stroke-linejoin="round" stroke-width="4"/>
    </g>
  </g>
</svg>
